# AST/ASF file generated using VICON BodyLanguage
# -----------------------------------------------
:version 1.10
:name VICON
:units
  mass 1.0
  length 0.45
  angle deg
:documentation
   .ast/.asf automatically generated from VICON data using
   VICON BodyBuilder and BodyLanguage model FoxedUp or BRILLIANT.MOD
:root
   order TX TY TZ RX RY RZ
   axis XYZ
   position 0 0 0  
   orientation 0 0 0 
:bonedata
  begin
     id 1 
     name lhipjoint
     direction 0.661853 -0.702389 0.261917 
     length 2.64193 
     axis 0 0 0  XYZ
  end
  begin
     id 2 
     name lfemur
     direction 0.34202 -0.939693 0  
     length 7.01722  
     axis 0 0 20  XYZ
    dof rx ry rz
    limits (-160.0 20.0)
           (-70.0 70.0)
           (-60.0 70.0)
  end
  begin
     id 3 
     name ltibia
     direction 0.34202 -0.939693 0   
     length 8.25008   
     axis 0 0 20   XYZ
    dof rx
    limits (-10.0 170.0)
  end
  begin
     id 4 
     name lfoot
     direction 0.0709916 -0.195048 0.978221   
     length 2.31941   
     axis -90 7.62852e-016 20   XYZ
    dof rx rz
    limits (-45.0 90.0)
           (-70.0 20.0)
  end
  begin
     id 5 
     name ltoes
     direction 1.53586e-011 -4.22017e-011 1   
     length 1.16486   
     axis -90 7.62852e-016 20   XYZ
    dof rx
    limits (-90.0 20.0)
  end
  begin
     id 6 
     name rhipjoint
     direction -0.638185 -0.721362 0.268992   
     length 2.57244  
     axis 0 0 0  XYZ 
  end
  begin
     id 7 
     name rfemur
     direction -0.34202 -0.939693 0   
     length 7.07017   
     axis 0 0 -20   XYZ
    dof rx ry rz
    limits (-160.0 20.0)
           (-70.0 70.0)
           (-70.0 60.0)
  end
  begin
     id 8 
     name rtibia
     direction -0.34202 -0.939693 0   
     length 8.20386   
     axis 0 0 -20   XYZ
    dof rx
    limits (-10.0 170.0)
 end
 begin
     id 9 
     name rfoot
     direction -0.0822429 -0.225961 0.970658   
     length 2.32215  
     axis -90 -7.62852e-016 -20   XYZ
    dof rx rz
    limits (-45.0 90.0)
           (-20.0 70.0)
  end
  begin
     id 10 
     name rtoes
     direction -1.53597e-011 -4.21689e-011 1   
     length 1.16333   
     axis -90 -7.62852e-016 -20   XYZ
    dof rx
    limits (-90.0 20.0)
  end
  begin
     id 11 
     name lowerback
     direction -0.0131557 0.998589 -0.0514484   
     length 2.14993   
     axis 0 0 0   XYZ
    dof rx ry rz
    limits (-20.0 45.0)
           (-30.0 30.0)
           (-30.0 30.0)
  end
  begin
     id 12 
     name upperback
     direction -0.000776481 0.999993 0.00352685   
     length 2.15301   
     axis 0 0 0   XYZ
    dof rx ry rz
    limits (-20.0 45.0)
           (-30.0 30.0)
           (-30.0 30.0)
  end
  begin
     id 13 
     name thorax
     direction 0.00438186 0.999609 0.0276143   
     length 2.15424   
     axis 0 0 0   XYZ
    dof rx ry rz
    limits (-20.0 45.0)
           (-30.0 30.0)
           (-30.0 30.0)
  end
  begin
     id 14 
     name lowerneck
     direction -0.0488006 0.998094 0.0377807   
     length 1.90481   
     axis 0 0 0   XYZ
    dof rx ry rz
    limits (-20.0 45.0)
           (-30.0 30.0)
           (-30.0 30.0)
  end
  begin
     id 15 
     name upperneck
     direction 0.0443769 0.990702 -0.12861   
     length 1.91305   
     axis 0 0 0   XYZ
    dof rx ry rz
    limits (-20.0 45.0)
           (-30.0 30.0)
           (-30.0 30.0)
  end
  begin
     id 16
     name head
     direction 0.0165599 0.998647 -0.0492982  
     length 1.92369  
     axis 0 0 0   XYZ
    dof rx ry rz
    limits (-20.0 45.0)
           (-30.0 30.0)
           (-30.0 30.0)
  end
  begin
     id 17 
     name lclavicle
     direction 0.911936 0.410197 -0.0105506  
     length 3.52622  
     axis 0 0 0   XYZ
    dof ry rz
    limits (-20.0 10.0)
           (0.0 20.0)
  end
  begin
     id 18 
     name lhumerus
     direction 1 -4.48974e-011 -2.48591e-028   
     length 5.47651   
     axis 180 -30 -90   XYZ
    dof rx ry rz
    limits (-60.0 90.0)
           (-90.0 90.0)
           (-90.0 90.0)
  end
  begin
     id 19
     name lradius
     direction 1 -4.48938e-011 -4.40099e-027   
     length 3.09058   
     axis 180 -30 -90   XYZ
    dof rx
    limits (-10.0 170.0)
  end
  begin
     id 20
     name lwrist
     direction 1 -4.49042e-011 -2.99852e-027   
     length 1.54529   
     axis 1.95339e-015 90 90   XYZ
    dof ry
    limits (-180.0 0.0)
 end
  begin
     id 21 
     name lhand
     direction 1 -4.48815e-011 -5.98193e-027   
     length 0.771611   
     axis 3.82337e-015 90 90   XYZ
    dof rx rz
    limits (-90.0 90.0)
           (-45.0 45.0)
  end
  begin
     id 22 
     name lfingers
     direction 1 -4.49034e-011 -1.1993e-026   
     length 0.622093   
     axis 7.64668e-015 90 90   XYZ
    dof rx
    limits (0.0 90.0)
  end
  begin
     id 23
     name lthumb
     direction 0.707107 -6.34867e-011 0.707107   
     length 0.893204   
     axis -90 45 -1.62303e-014   XYZ
    dof rx rz
    limits (-45.0 45.0)
           (-45.0 45.0)
  end
  begin
     id 24 
     name rclavicle
     direction -0.93442 0.355634 -0.0195692   
     length 3.62463  
     axis 0 0 0   XYZ 
    dof ry rz
    limits (-10.0 20.0)
           (-20.0 0.0)
  end
  begin
     id 25 
     name rhumerus
     direction -1 -4.48957e-011 -1.19147e-027  
     length 5.14182   
     axis 180 30 90   XYZ
    dof rx ry rz
    limits (-90.0 60.0)
           (-90.0 90.0)
           (-90.0 90.0)
  end
  begin
     id 26 
     name rradius
     direction -1 -4.48952e-011 -3.81062e-027   
     length 3.35565   
     axis 180 30 90   XYZ
    dof rx
    limits (-10.0 170.0)
  end
  begin
     id 27 
     name rwrist
     direction -1 -4.48973e-011 -2.99621e-027   
     length 1.67782   
     axis 1.95339e-015 -90 -90   XYZ
    dof ry
    limits (-180.0 0.0)
  end
  begin
     id 28
     name rhand
     direction -1 -4.48895e-011 -5.98727e-027   
     length 0.801042   
     axis 3.82337e-015 -90 -90   XYZ
    dof rx rz
    limits (-90.0 90.0)
           (-45.0 45.0)
  end
  begin
     id 29
     name rfingers
     direction -1 -4.49065e-011 -1.19972e-026   
     length 0.645821   
     axis 7.64668e-015 -90 -90   XYZ
    dof rx
    limits (0.0 90.0)
  end
  begin
     id 30
     name rthumb
     direction -0.707107 -6.34957e-011 0.707107   
     length 0.927273   
     axis -90 -45 1.62303e-014   XYZ
    dof rx rz
    limits (-45.0 45.0)
           (-45.0 45.0)
  end
:hierarchy
  begin
    root lhipjoint rhipjoint lowerback
    lhipjoint lfemur
    lfemur ltibia
    ltibia lfoot
    lfoot ltoes
    rhipjoint rfemur
    rfemur rtibia
    rtibia rfoot
    rfoot rtoes
    lowerback upperback
    upperback thorax
    thorax lowerneck lclavicle rclavicle
    lowerneck upperneck
    upperneck head
    lclavicle lhumerus
    lhumerus lradius
    lradius lwrist
    lwrist lhand lthumb
    lhand lfingers
    rclavicle rhumerus
    rhumerus rradius
    rradius rwrist
    rwrist rhand rthumb
    rhand rfingers
  end

#!OML:ASF E:\Style4\Style4.ASF
:FULLY-SPECIFIED
:DEGREES
528
root 0.200457 16.7153 -2.54698 4.0535 -1.3052 2.86471
lowerback 18.6767 2.33839 -0.705591
upperback 10.2462 2.9291 0.407971
thorax 0.499247 1.42386 0.309437
lowerneck 7.07557 -5.62745 -5.05593
upperneck -10.1484 -7.64142 5.03655
head -3.78696 -3.87419 2.73513
rclavicle -2.54444e-014 1.27222e-014
rhumerus 27.7282 6.35092 -71.5288
rradius 107.001
rwrist 23.9457
rhand 16.6522 -2.63558
rfingers 7.12502
rthumb 41.4045 -27.422
lclavicle -2.54444e-014 1.27222e-014
lhumerus 29.1544 -18.5965 62.3241
lradius 132.254
lwrist -6.26469
lhand 13.1579 39.219
lfingers 7.12502
lthumb 38.115 64.9868
rfemur -37.6096 -0.885744 15.4713
rtibia 55.7173
rfoot -21.0611 -9.99625
rtoes -11.7783
lfemur -36.5557 1.51946 -22.2412
ltibia 53.9252
lfoot -20.8172 6.43725
ltoes -15.7164
529
root 0.197679 16.7149 -2.54684 4.06018 -1.26624 2.77747
lowerback 18.6485 2.37915 -0.569178
upperback 10.2441 3.00364 0.406622
thorax 0.517294 1.4668 0.219216
lowerneck 6.95673 -5.67841 -5.10975
upperneck -10.0454 -7.72213 4.94051
head -3.73404 -3.90676 2.71054
rclavicle -2.74323e-014 9.54166e-015
rhumerus 27.2626 6.11063 -71.4869
rradius 106.53
rwrist 24.2295
rhand 16.4823 -2.58864
rfingers 7.12502
rthumb 41.245 -27.4266
lclavicle -2.74323e-014 9.54166e-015
lhumerus 30.0114 -18.4013 62.2374
lradius 132.266
lwrist -6.23934
lhand 12.9566 39.0758
lfingers 7.12502
lthumb 37.9248 64.8954
rfemur -37.5946 -0.906975 15.5856
rtibia 55.6969
rfoot -21.0561 -10.071
rtoes -12.2593
lfemur -36.5753 1.50106 -22.1373
ltibia 53.9436
lfoot -20.7681 6.47551
ltoes -16.3249
530
root 0.192109 16.716 -2.54739 4.04906 -1.18591 2.69452
lowerback 18.6729 2.37272 -0.550044
upperback 10.2495 2.99896 0.436726
thorax 0.510025 1.46448 0.240137
lowerneck 6.7972 -5.63468 -5.33067
upperneck -9.96266 -7.67497 4.99937
head -3.674 -3.87798 2.75289
rclavicle -2.5842e-014 1.90833e-014
rhumerus 26.8313 6.05466 -71.5256
rradius 106.189
rwrist 24.5049
rhand 16.5253 -2.4587
rfingers 7.12502
rthumb 41.2854 -27.2837
lclavicle -2.5842e-014 1.90833e-014
lhumerus 30.7904 -18.0008 62.1918
lradius 132.289
lwrist -6.22038
lhand 12.9729 39.0887
lfingers 7.12502
lthumb 37.9403 64.9042
rfemur -37.5524 -0.946283 15.7012
rtibia 55.6794
rfoot -21.0756 -10.1147
rtoes -12.2583
lfemur -36.5845 1.48878 -22.0301
ltibia 53.9473
lfoot -20.7928 6.41282
ltoes -16.2725
531
root 0.185664 16.7175 -2.5475 4.00927 -1.09428 2.71896
lowerback 18.7477 2.40896 -0.645071
upperback 10.2278 3.03114 0.432584
thorax 0.443858 1.47721 0.279774
lowerneck 6.74782 -5.61822 -5.27831
upperneck -9.58452 -7.68693 4.6955
head -3.95997 -3.85257 2.93004
rclavicle -1.07344e-014 0
rhumerus 26.2619 5.94192 -71.606
rradius 105.913
rwrist 24.6362
rhand 16.5494 -2.50885
rfingers 7.12502
rthumb 41.308 -27.3265
lclavicle -1.07344e-014 0
lhumerus 31.5421 -17.7553 62.1194
lradius 132.275
lwrist -6.30938
lhand 12.8678 39.1474
lfingers 7.12502
lthumb 37.841 64.9897
rfemur -37.485 -0.986998 15.6868
rtibia 55.6757
rfoot -21.1027 -10.0619
rtoes -11.7833
lfemur -36.5366 1.43563 -22.0327
ltibia 53.9265
lfoot -20.8252 6.40559
ltoes -16.3606
532
root 0.181405 16.7185 -2.54692 4.01876 -1.0174 2.71575
lowerback 18.739 2.47957 -0.629467
upperback 10.1876 3.12536 0.395794
thorax 0.406893 1.52639 0.214617
lowerneck 6.85308 -5.6623 -5.0843
upperneck -9.66518 -7.74009 4.58937
head -4.01744 -3.88023 2.87038
rclavicle -1.31198e-014 1.27222e-014
rhumerus 25.5615 5.66111 -71.6867
rradius 105.691
rwrist 24.799
rhand 16.4433 -2.55364
rfingers 7.12502
rthumb 41.2085 -27.4034
lclavicle -1.31198e-014 1.27222e-014
lhumerus 32.3198 -17.6805 62.0424
lradius 132.139
lwrist -6.36687
lhand 12.6957 39.0865
lfingers 7.12502
lthumb 37.6784 64.9725
rfemur -37.4908 -1.03397 15.7023
rtibia 55.6873
rfoot -21.1337 -10.0476
rtoes -11.5097
lfemur -36.5364 1.3799 -22.0085
ltibia 53.91
lfoot -20.8303 6.35257
ltoes -16.0565
533
root 0.177277 16.719 -2.54455 4.00836 -0.966676 2.71317
lowerback 18.7083 2.52223 -0.668863
upperback 10.1767 3.17528 0.385472
thorax 0.408864 1.55028 0.217894
lowerneck 6.9238 -5.65798 -5.16514
upperneck -10.0682 -7.71253 4.80829
head -3.73967 -3.8921 2.67846
rclavicle 3.49861e-014 -1.51076e-014
rhumerus 24.8928 5.51701 -71.7334
rradius 105.584
rwrist 24.9119
rhand 16.2547 -2.50112
rfingers 7.12502
rthumb 41.0314 -27.4075
lclavicle 3.49861e-014 -1.51076e-014
lhumerus 33.0311 -17.4357 61.9866
lradius 131.885
lwrist -6.43978
lhand 12.699 39.0571
lfingers 7.12502
lthumb 37.6815 64.9422
rfemur -37.475 -1.08512 15.7265
rtibia 55.7176
rfoot -21.1435 -10.1331
rtoes -11.8528
lfemur -36.5097 1.34987 -21.9907
ltibia 53.8975
lfoot -20.8171 6.26966
ltoes -15.7163
534
root 0.1708 16.7168 -2.54336 4.02157 -0.920036 2.77143
lowerback 18.698 2.55572 -0.82189
upperback 10.1587 3.1953 0.37227
thorax 0.387399 1.55483 0.286192
lowerneck 7.07982 -5.5782 -5.45359
upperneck -10.2369 -7.61791 5.04716
head -3.80011 -3.84741 2.80229
rclavicle -5.96354e-015 1.59028e-014
rhumerus 24.2417 5.48703 -71.8302
rradius 105.583
rwrist 24.9761
rhand 16.2903 -2.59284
rfingers 7.12502
rthumb 41.0648 -27.4886
lclavicle -5.96354e-015 1.59028e-014
lhumerus 33.6745 -17.1347 61.9226
lradius 131.536
lwrist -6.54593
lhand 12.573 39.0889
lfingers 7.12502
lthumb 37.5624 65.0058
rfemur -37.5024 -1.10359 15.6832
rtibia 55.7688
rfoot -21.1925 -10.1704
rtoes -11.847
lfemur -36.5406 1.34125 -22.0342
ltibia 53.9121
lfoot -20.8059 6.15345
ltoes -15.3582
